<svg width="11" height="13" viewBox="0 0 11 13" fill="none" xmlns="http://www.w3.org/2000/svg">
<path d="M6.20311 1.67474C6.99273 0.629607 8.09051 0.624512 8.09051 0.624512C8.09051 0.624512 8.2538 1.60711 7.46934 2.55367C6.63174 3.56438 5.67969 3.399 5.67969 3.399C5.67969 3.399 5.50092 2.60411 6.20311 1.67474ZM5.78012 4.0873C6.18634 4.0873 6.94028 3.52655 7.92163 3.52655C9.61085 3.52655 10.2754 4.7336 10.2754 4.7336C10.2754 4.7336 8.97567 5.40091 8.97567 7.02012C8.97567 8.84672 10.5948 9.47622 10.5948 9.47622C10.5948 9.47622 9.46296 12.6752 7.9342 12.6752C7.23205 12.6752 6.68617 12.2001 5.94635 12.2001C5.19242 12.2001 4.44425 12.693 3.95696 12.693C2.56098 12.693 0.797363 9.6584 0.797363 7.21909C0.797363 4.81915 2.29015 3.56018 3.69032 3.56018C4.60055 3.56018 5.30691 4.0873 5.78012 4.0873Z" fill="#999999"/>
</svg>
