<svg width="22" height="22" viewBox="0 0 22 22" fill="none" xmlns="http://www.w3.org/2000/svg">
<path d="M7.5 1.66667V20.3333M13.3333 8.66667L15.6667 11L13.3333 13.3333M1.66667 4.00001C1.66667 3.38117 1.9125 2.78767 2.35009 2.35009C2.78767 1.9125 3.38117 1.66667 4.00001 1.66667H18C18.6188 1.66667 19.2123 1.9125 19.6499 2.35009C20.0875 2.78767 20.3333 3.38117 20.3333 4.00001V18C20.3333 18.6188 20.0875 19.2123 19.6499 19.6499C19.2123 20.0875 18.6188 20.3333 18 20.3333H4.00001C3.38117 20.3333 2.78767 20.0875 2.35009 19.6499C1.9125 19.2123 1.66667 18.6188 1.66667 18V4.00001Z" stroke="#A3A3A3" stroke-width="1.5" stroke-linecap="round" stroke-linejoin="round"/>
</svg>
