<svg width="17" height="18" viewBox="0 0 17 18" fill="none" xmlns="http://www.w3.org/2000/svg">
<path d="M8.99978 1.50001C9.10978 1.50001 9.21895 1.50001 9.32728 1.50001C8.25673 2.49477 7.5686 3.83322 7.38252 5.2827C7.19644 6.73218 7.52416 8.20104 8.30872 9.43396C9.09329 10.6669 10.2851 11.5859 11.6769 12.0312C13.0688 12.4766 14.5727 12.4201 15.9273 11.8717C15.4062 13.1254 14.5546 14.2142 13.4633 15.0219C12.3719 15.8296 11.0818 16.3259 9.73053 16.4578C8.37925 16.5898 7.0175 16.3525 5.79052 15.7712C4.56354 15.1899 3.51737 14.2864 2.7636 13.1572C2.00983 12.0279 1.57674 10.7152 1.51051 9.35916C1.44429 8.00306 1.74743 6.65443 2.38759 5.45711C3.02774 4.25979 3.98091 3.2587 5.14541 2.56063C6.30991 1.86255 7.64207 1.49367 8.99978 1.49335V1.50001Z" stroke="#A3A3A3" stroke-width="1.5" stroke-linecap="round" stroke-linejoin="round"/>
</svg>
