<svg width="17" height="18" viewBox="0 0 17 18" fill="none" xmlns="http://www.w3.org/2000/svg">
<path d="M8.99978 1.49995C9.10978 1.49995 9.21895 1.49995 9.32728 1.49995C8.25673 2.49471 7.5686 3.83316 7.38252 5.28264C7.19644 6.73212 7.52416 8.20098 8.30872 9.43389C9.09329 10.6668 10.2851 11.5858 11.6769 12.0312C13.0688 12.4765 14.5727 12.4201 15.9273 11.8716C15.4062 13.1254 14.5546 14.2141 13.4633 15.0218C12.3719 15.8295 11.0818 16.3258 9.73053 16.4578C8.37925 16.5897 7.0175 16.3524 5.79052 15.7711C4.56354 15.1898 3.51737 14.2864 2.7636 13.1571C2.00983 12.0279 1.57674 10.7152 1.51051 9.35909C1.44429 8.003 1.74743 6.65437 2.38759 5.45705C3.02774 4.25973 3.98091 3.25864 5.14541 2.56056C6.30991 1.86249 7.64207 1.49361 8.99978 1.49329V1.49995Z" stroke="#FAFAFA" stroke-width="1.5" stroke-linecap="round" stroke-linejoin="round"/>
</svg>
