<svg width="18" height="23" viewBox="0 0 18 23" fill="none" xmlns="http://www.w3.org/2000/svg">
<path fill-rule="evenodd" clip-rule="evenodd" d="M15.7071 7.81961C15.7071 9.20269 16.039 10.0179 16.7695 10.9573C17.3231 11.6494 17.5 12.5378 17.5 13.5017C17.5 14.4644 17.2128 15.3783 16.6373 16.1203C15.884 17.0098 14.8215 17.5777 13.7372 17.6764C12.1659 17.8239 10.5937 17.9482 9.0005 17.9482C7.40634 17.9482 5.83505 17.8739 4.26375 17.6764C3.17846 17.5777 2.11602 17.0098 1.36367 16.1203C0.78822 15.3783 0.5 14.4644 0.5 13.5017C0.5 12.5378 0.677901 11.6494 1.23049 10.9573C1.98384 10.0179 2.29392 9.20269 2.29392 7.81961V7.35045C2.29392 5.4982 2.71333 4.28703 3.577 3.10137C4.86106 1.37224 6.91935 0.335205 8.95577 0.335205H9.04522C11.1254 0.335205 13.2502 1.42215 14.5125 3.2256C15.3314 4.38685 15.7071 5.547 15.7071 7.35045V7.81961ZM6.07367 20.2245C6.07367 19.67 6.53582 19.416 6.96318 19.3073C7.46309 19.1908 10.5093 19.1908 11.0092 19.3073C11.4365 19.416 11.8987 19.67 11.8987 20.2245C11.8738 20.7525 11.5926 21.2205 11.204 21.5178C10.7001 21.9503 10.1087 22.2243 9.49057 22.323C9.14868 22.3718 8.81275 22.3729 8.48279 22.323C7.86361 22.2243 7.27227 21.9503 6.76937 21.5167C6.37978 21.2205 6.09852 20.7525 6.07367 20.2245Z" fill="#9E9E9E"/>
</svg>
