<svg width="95" height="111" viewBox="0 0 95 111" fill="none" xmlns="http://www.w3.org/2000/svg">
<path d="M31.2076 21.5955H13.326L13.326 14.7553L0.184078 22.3496L13.326 29.9438L13.326 23.1036H31.2076L31.2076 29.9438L44.3495 22.3496L31.2076 14.7553L31.2076 21.5955Z" fill="white"/>
<g filter="url(#filter0_d_20725_4141)">
<path fill-rule="evenodd" clip-rule="evenodd" d="M36.3534 81.7926C36.7902 82.1861 37.0918 82.4687 38.0236 83.354C38.9364 84.221 39.3778 84.6306 39.7814 84.9734C39.9497 85.1151 40.0933 85.4943 40.1501 86.0579C40.1969 86.5216 40.1806 87.0388 40.1239 87.5372C40.1043 87.7096 40.0854 87.8339 40.0745 87.8931C39.9529 88.5581 40.4596 89.1722 41.1355 89.1791C41.7438 89.1853 42.2125 89.1928 43.453 89.2149C43.7634 89.2205 43.7634 89.2205 44.0748 89.2259C47.4469 89.2839 49.1692 89.268 50.4053 89.1125C51.7265 88.9464 53.0872 87.3508 54.2635 85.3486C55.2601 87.1202 56.6427 88.8503 58.0387 89.0752C58.4822 89.146 59.0187 89.168 59.6406 89.1537C60.1042 89.143 60.5948 89.1125 61.09 89.0682C61.4634 89.0349 61.7608 89.0013 61.9385 88.9783C62.5951 88.8932 63.0247 88.2471 62.8493 87.6087C62.8114 87.4708 62.7505 87.2178 62.6891 86.8993C62.6179 86.53 62.5665 86.1693 62.5431 85.8408C62.5283 85.6325 62.5253 85.4439 62.5348 85.2808C62.5511 84.9966 62.5563 84.8375 62.5642 84.4698C62.5673 84.333 62.5673 84.333 62.5713 84.2132C62.5867 83.8212 62.6393 83.449 62.8098 82.6374C62.883 82.2851 63.2378 81.611 63.7967 80.7767C63.9631 80.5282 64.1451 80.2687 64.3401 80.0008C64.7098 79.4929 65.1077 78.9796 65.5057 78.4884C65.7442 78.1942 65.9285 77.9741 66.0312 77.8546C66.892 76.6212 67.81 74.602 68.1473 73.4215C68.4711 72.2869 68.7301 70.1974 68.8893 68.1437C68.9765 66.9786 69.0088 66.0394 69.0088 64.5661C69.0089 64.3077 69.0089 64.3077 69.0094 64.0943C69.0102 63.7448 69.0103 63.6126 69.0091 63.4493C69.006 63.0029 68.993 62.5605 68.9499 61.4322C68.8571 59.0676 67.5613 57.5388 65.6517 57.2439C64.0271 56.993 62.0497 58.3423 62.0497 58.3423C62.0497 58.3423 61.6096 56.8229 61.3123 56.3538C60.8293 55.6001 59.5855 54.6397 58.6347 54.4525C57.6567 54.2626 56.4974 54.2836 55.4328 54.4719C54.5005 54.6388 53.5718 55.4712 53.0346 56.3691C52.6503 57.0096 53.0117 56.3351 52.6273 55.6725C52.0953 54.7599 50.8565 53.9426 49.6768 53.7014C48.6771 53.4947 47.5319 53.5734 46.4858 53.8843C45.1401 54.2864 44.9259 55.3105 44.8724 55.0173C44.6934 54.0343 44.6769 54.0989 44.5653 53.3977C44.151 50.7958 43.6873 48.9955 42.9841 47.4245C43.0246 47.5148 42.7266 46.837 42.6182 46.6033C42.4304 46.1986 42.243 45.8323 42.0369 45.48C41.4019 44.394 40.6742 43.581 39.7611 43.1191C38.1754 42.3161 35.7987 42.7069 34.6721 44.0219C33.5533 45.3288 33.3668 47.5138 33.6485 50.2176C33.7561 51.2674 34.1332 53.1839 34.4752 54.6006C34.5961 55.0923 34.7021 55.5407 34.8964 56.3691C34.9298 56.51 34.9298 56.51 34.9635 56.6509C35.1138 57.2778 35.2456 57.7936 35.403 58.3597C35.3865 58.3007 35.6849 59.3597 35.7485 59.594C35.7696 59.6723 35.7696 59.6723 35.7906 59.7509C35.9092 60.1978 36.0252 60.6797 36.2065 61.4839C36.3056 61.926 36.4024 62.3984 36.4971 62.8992C36.7553 64.2649 36.7565 63.9805 36.508 63.6893C36.3363 63.4881 36.1749 63.3054 36.0189 63.137C35.7289 62.824 35.4624 62.5651 35.2093 62.3587C33.3656 60.8502 32.2358 60.1836 30.6848 60.0372C28.1406 59.7928 25.7262 61.5899 25.3631 64.0154C25.1398 65.5025 25.2118 66.187 25.8997 67.5012C26.2783 68.2113 26.9187 69.0689 28.1135 70.5451C28.1866 70.6354 28.1866 70.6354 28.2597 70.7254C29.7263 72.5327 29.8861 72.7335 30.2348 73.2386C31.1775 74.6065 33.4722 78.5342 33.8894 79.0615L36.3534 81.7926Z" fill="black"/>
<path fill-rule="evenodd" clip-rule="evenodd" d="M29.952 69.3519C29.8796 69.2628 29.8796 69.2628 29.8075 69.1737C28.711 67.819 28.1097 67.0138 27.8267 66.483C27.3826 65.6345 27.3584 65.4045 27.5185 64.3385C27.7066 63.0816 29.0641 62.0712 30.4779 62.207C31.4562 62.2994 32.3108 62.8036 33.83 64.0466C33.9944 64.1808 34.1928 64.3734 34.4196 64.6182C34.5538 64.7631 34.6961 64.9241 34.8497 65.1042C35.0805 65.3746 35.8583 66.3263 35.7437 66.1878C35.9127 66.391 36.0335 66.5484 36.1716 66.7413C36.4451 67.1317 36.5989 67.3486 36.8073 67.6264C36.7096 67.496 37.4314 68.4937 37.5842 68.6396C38.3939 69.4125 39.5664 68.7615 39.4929 67.7316C39.4807 67.5596 39.4402 67.3738 39.3558 67.0495C39.022 64.6686 38.9052 63.9044 38.6386 62.4943C38.5396 61.9705 38.4379 61.4742 38.3328 61.0057C38.1458 60.1758 38.0237 59.6687 37.897 59.1915C37.8745 59.107 37.8745 59.107 37.8519 59.0234C37.7851 58.7769 37.4821 57.7019 37.5023 57.7741C37.3531 57.2373 37.2275 56.746 37.0829 56.1427C37.05 56.0052 37.05 56.0052 37.0172 55.8669C36.8239 55.0429 36.7153 54.583 36.5927 54.0845C36.273 52.7602 35.9119 50.9249 35.8164 49.9935C35.5971 47.8887 35.7484 46.116 36.3274 45.4397C36.7795 44.912 38.0607 44.7014 38.7766 45.0639C39.2447 45.3007 39.7125 45.8233 40.1551 46.5803C40.3227 46.8667 40.4798 47.1739 40.6407 47.5206C40.7382 47.7306 41.027 48.3878 40.9945 48.3151C41.6057 49.6808 42.0256 51.3111 42.4125 53.7403C42.527 54.46 42.6687 55.2754 42.8503 56.2731C42.9043 56.5689 42.9043 56.5689 42.9585 56.8635C43.8344 61.6162 43.7703 61.2559 43.7829 61.635C43.8289 63.0177 45.8699 63.0501 45.9597 61.6696C45.9882 61.2317 45.978 60.8408 45.9275 59.7181C45.9204 59.5593 45.9204 59.5593 45.9135 59.401C45.8693 58.3667 45.8718 57.7716 45.933 57.4333C46.0444 56.8165 46.5981 56.1256 47.1081 55.9732C47.8243 55.7604 48.6089 55.7064 49.2375 55.8364C49.8392 55.9594 50.5414 56.4226 50.7429 56.7682C50.9856 57.1867 51.1938 57.8243 51.3534 58.6146C51.4821 59.2524 51.5708 59.9367 51.6331 60.6671C51.6525 60.8943 51.6651 61.0699 51.6846 61.3604C51.6929 61.482 51.6929 61.482 51.7011 61.5823C51.7058 61.6326 51.7058 61.6326 51.7172 61.7121C51.726 61.7678 51.726 61.7678 51.7676 61.909C51.7887 62.3095 51.7887 62.3095 53.3974 62.458C53.8778 61.8773 53.8778 61.8773 53.8647 61.7755C53.9434 61.4315 53.9915 61.0481 54.0602 60.3278C54.104 59.8595 54.1261 59.6293 54.152 59.3905C54.2589 58.402 54.3947 57.774 54.5603 57.4979C54.7658 57.1544 55.4897 56.676 55.8144 56.6179C56.6297 56.4737 57.525 56.4575 58.2163 56.5917C58.5294 56.6533 59.2932 57.2431 59.4739 57.5252C59.8452 58.111 60.2062 59.9996 60.4095 61.8733C60.3775 61.9962 60.3775 61.9962 60.8766 62.7092C62.5923 62.5136 62.5923 62.5136 62.5441 62.2038C62.5893 62.0934 62.6254 61.9657 62.6763 61.7675C62.799 61.3033 62.8803 61.0338 63.0013 60.7318C63.0851 60.5229 63.1734 60.3442 63.2639 60.202C63.6146 59.6501 64.5225 59.2751 65.3188 59.398C66.174 59.5301 66.7189 60.173 66.7716 61.5166C66.8139 62.6222 66.8264 63.0472 66.8293 63.4644C66.8303 63.6184 66.8303 63.7419 66.8295 64.0896C66.829 64.3044 66.829 64.3044 66.8289 64.5661C66.8289 65.987 66.7985 66.8723 66.7157 67.9781C66.5685 69.8766 66.3201 71.8806 66.0512 72.823C65.7766 73.7838 64.9571 75.5865 64.3081 76.5241C64.2621 76.5686 64.0646 76.8044 63.8121 77.116C63.3918 77.6345 62.9715 78.1768 62.5775 78.7182C62.3666 79.0079 62.1685 79.2904 61.9855 79.5636C61.2774 80.6207 60.823 81.484 60.6759 82.1916C60.4828 83.1112 60.4138 83.599 60.3931 84.1278C60.388 84.2775 60.388 84.2775 60.3848 84.4227C60.3774 84.7658 60.3729 84.9043 60.3585 85.1552C60.3432 85.4187 60.3476 85.6992 60.3687 85.9954C60.3989 86.4197 60.3687 86.9995 60.3687 86.9995C60.3687 86.9995 60.0006 86.9651 59.5902 86.9746C59.0888 86.9861 58.6719 86.969 58.3837 86.923C57.968 86.856 56.8453 85.4511 56.2705 84.3566C55.392 82.6814 53.2594 82.7627 52.3853 84.2421C51.5968 85.5842 50.4681 86.9077 50.1331 86.9498C49.0444 87.0867 47.3585 87.1023 44.1121 87.0465C43.8017 87.0411 43.8017 87.0411 43.4916 87.0356C42.2451 87.0134 42.293 87.2238 42.3186 86.9995C42.3914 86.3592 42.3832 86.4792 42.3186 85.839C42.2103 84.7657 41.879 83.8904 41.1887 83.309C40.8316 83.0058 40.4045 82.6094 39.5466 81.7945C38.5666 80.8636 38.2597 80.5759 37.8814 80.2434L35.5526 77.6548C35.297 77.3279 33.0532 73.4874 32.0288 72.0009C31.6303 71.4238 31.4813 71.2365 29.952 69.3519ZM57.5862 69.3631V79.4159C57.5862 80.869 59.7659 80.869 59.7659 79.4159V69.3631C59.7659 67.91 57.5862 67.91 57.5862 69.3631ZM51.6829 69.3611L51.7294 79.4545C51.7361 80.9076 53.9158 80.8975 53.9091 79.4444L53.8626 69.351C53.8559 67.8979 51.6762 67.908 51.6829 69.3611ZM48.1679 79.3984L48.1068 69.4416C48.0979 67.9885 45.9183 68.0019 45.9272 69.455L45.9882 79.4118C45.9971 80.8649 48.1768 80.8515 48.1679 79.3984Z" fill="white"/>
</g>
<defs>
<filter id="filter0_d_20725_4141" x="-3.81253" y="15.0938" width="104.625" height="104.625" filterUnits="userSpaceOnUse" color-interpolation-filters="sRGB">
<feFlood flood-opacity="0" result="BackgroundImageFix"/>
<feColorMatrix in="SourceAlpha" type="matrix" values="0 0 0 0 0 0 0 0 0 0 0 0 0 0 0 0 0 0 127 0" result="hardAlpha"/>
<feOffset dy="2.90625"/>
<feGaussianBlur stdDeviation="2.90625"/>
<feColorMatrix type="matrix" values="0 0 0 0 0 0 0 0 0 0 0 0 0 0 0 0 0 0 0.298656 0"/>
<feBlend mode="normal" in2="BackgroundImageFix" result="effect1_dropShadow_20725_4141"/>
<feBlend mode="normal" in="SourceGraphic" in2="effect1_dropShadow_20725_4141" result="shape"/>
</filter>
</defs>
</svg>
