<svg width="95" height="111" viewBox="0 0 95 111" fill="none" xmlns="http://www.w3.org/2000/svg">
<path d="M31.0235 21.3287H13.1419L13.1419 14.4884L-4.06707e-06 22.0827L13.1419 29.677L13.1419 22.8368H31.0235L31.0235 29.677L44.1654 22.0827L31.0235 14.4884L31.0235 21.3287Z" fill="black"/>
<g filter="url(#filter0_d_20725_4151)">
<path fill-rule="evenodd" clip-rule="evenodd" d="M36.1693 81.5257C36.6061 81.9192 36.9077 82.2019 37.8396 83.0871C38.7523 83.9541 39.1937 84.3638 39.5973 84.7065C39.7657 84.8483 39.9092 85.2275 39.966 85.791C40.0128 86.2547 39.9965 86.772 39.9398 87.2704C39.9202 87.4427 39.9013 87.5671 39.8905 87.6263C39.7688 88.2912 40.2755 88.9054 40.9515 88.9123C41.5597 88.9184 42.0284 88.926 43.2689 88.9481C43.5793 88.9536 43.5793 88.9536 43.8907 88.959C47.2628 89.017 48.9851 89.0011 50.2212 88.8457C51.5424 88.6796 52.9031 87.0839 54.0794 85.0817C55.0761 86.8534 56.4586 88.5834 57.8546 88.8083C58.2981 88.8792 58.8347 88.9012 59.4565 88.8869C59.9201 88.8762 60.4108 88.8456 60.9059 88.8014C61.2793 88.768 61.5768 88.7345 61.7545 88.7115C62.411 88.6263 62.8406 87.9803 62.6652 87.3419C62.6273 87.204 62.5664 86.951 62.505 86.6324C62.4338 86.2632 62.3824 85.9025 62.359 85.5739C62.3442 85.3656 62.3413 85.177 62.3507 85.014C62.3671 84.7298 62.3722 84.5707 62.3801 84.203C62.3832 84.0661 62.3832 84.0661 62.3872 83.9463C62.4026 83.5543 62.4553 83.1821 62.6257 82.3705C62.6989 82.0182 63.0537 81.3441 63.6126 80.5098C63.7791 80.2613 63.961 80.0019 64.156 79.734C64.5257 79.226 64.9236 78.7127 65.3216 78.2216C65.5601 77.9273 65.7444 77.7073 65.8471 77.5878C66.708 76.3544 67.6259 74.3352 67.9632 73.1547C68.287 72.0201 68.546 69.9306 68.7052 67.8768C68.7924 66.7117 68.8247 65.7725 68.8247 64.2993C68.8249 64.0409 68.8249 64.0409 68.8253 63.8275C68.8261 63.478 68.8262 63.3458 68.8251 63.1824C68.8219 62.7361 68.8089 62.2937 68.7658 61.1654C68.673 58.8007 67.3772 57.2719 65.4676 56.977C63.843 56.7262 61.8656 58.0755 61.8656 58.0755C61.8656 58.0755 61.4255 56.5561 61.1282 56.087C60.6452 55.3333 59.4014 54.3728 58.4506 54.1857C57.4726 53.9958 56.3133 54.0168 55.2487 54.2051C54.3164 54.3719 53.3877 55.2043 52.8505 56.1022C52.4662 56.7427 52.8276 56.0682 52.4433 55.4056C51.9113 54.493 50.6724 53.6758 49.4927 53.4346C48.4931 53.2279 47.3478 53.3066 46.3018 53.6175C44.9561 54.0196 44.7418 55.0437 44.6883 54.7505C44.5093 53.7675 44.4928 53.8321 44.3812 53.1308C43.9669 50.5289 43.5032 48.7286 42.8001 47.1577C42.8405 47.248 42.5425 46.5702 42.4341 46.3364C42.2463 45.9317 42.0589 45.5654 41.8529 45.2131C41.2178 44.1272 40.4901 43.3141 39.577 42.8523C37.9913 42.0493 35.6146 42.4401 34.488 43.7551C33.3692 45.0619 33.1827 47.2469 33.4644 49.9507C33.572 51.0005 33.9492 52.917 34.2911 54.3337C34.412 54.8254 34.518 55.2739 34.7123 56.1022C34.7457 56.2431 34.7457 56.2431 34.7794 56.3841C34.9297 57.011 35.0615 57.5268 35.2189 58.0928C35.2024 58.0338 35.5008 59.0928 35.5644 59.3272C35.5856 59.4054 35.5856 59.4054 35.6065 59.484C35.7252 59.9309 35.8412 60.4128 36.0224 61.217C36.1216 61.6592 36.2183 62.1316 36.313 62.6323C36.5712 63.9981 36.5725 63.7137 36.3239 63.4224C36.1522 63.2213 35.9908 63.0385 35.8348 62.8701C35.5448 62.5571 35.2783 62.2983 35.0252 62.0918C33.1815 60.5833 32.0518 59.9168 30.5007 59.7704C27.9565 59.5259 25.5421 61.3231 25.179 63.7485C24.9558 65.2356 25.0277 65.9202 25.7156 67.2343C26.0942 67.9444 26.7346 68.802 27.9294 70.2782C28.0025 70.3685 28.0025 70.3685 28.0756 70.4586C29.5422 72.2659 29.702 72.4667 30.0507 72.9717C30.9934 74.3397 33.2882 78.2673 33.7053 78.7947L36.1693 81.5257Z" fill="black"/>
<path fill-rule="evenodd" clip-rule="evenodd" d="M29.7679 69.0851C29.6956 68.9959 29.6956 68.9959 29.6234 68.9069C28.5269 67.5522 27.9257 66.7469 27.6426 66.2161C27.1985 65.3676 27.1743 65.1377 27.3344 64.0716C27.5225 62.8148 28.88 61.8044 30.2938 61.9402C31.2721 62.0326 32.1268 62.5368 33.6459 63.7797C33.8104 63.9139 34.0087 64.1065 34.2355 64.3514C34.3697 64.4962 34.512 64.6573 34.6656 64.8373C34.8964 65.1078 35.6742 66.0595 35.5596 65.921C35.7286 66.1242 35.8495 66.2816 35.9875 66.4745C36.261 66.8649 36.4149 67.0817 36.6232 67.3595C36.5255 67.2291 37.2473 68.2269 37.4001 68.3728C38.2098 69.1456 39.3823 68.4947 39.3088 67.4647C39.2966 67.2928 39.2562 67.107 39.1717 66.7827C38.8379 64.4018 38.7211 63.6376 38.4545 62.2274C38.3555 61.7036 38.2538 61.2074 38.1488 60.7389C37.9617 59.9089 37.8397 59.4018 37.713 58.9246C37.6904 58.8402 37.6904 58.8402 37.6679 58.7566C37.601 58.5101 37.298 57.4351 37.3182 57.5072C37.169 56.9705 37.0434 56.4792 36.8988 55.8758C36.8659 55.7384 36.8659 55.7384 36.8331 55.6C36.6399 54.7761 36.5312 54.3162 36.4086 53.8177C36.089 52.4934 35.7278 50.658 35.6323 49.7266C35.413 47.6219 35.5643 45.8492 36.1433 45.1729C36.5954 44.6452 37.8766 44.4345 38.5925 44.797C39.0606 45.0338 39.5284 45.5565 39.9711 46.3134C40.1386 46.5999 40.2958 46.9071 40.4566 47.2538C40.5541 47.4638 40.843 48.1209 40.8104 48.0483C41.4217 49.414 41.8416 51.0442 42.2284 53.4734C42.3429 54.1932 42.4846 55.0086 42.6662 56.0062C42.7202 56.302 42.7202 56.302 42.7744 56.5966C43.6503 61.3493 43.5862 60.9891 43.5988 61.3682C43.6448 62.7509 45.6858 62.7833 45.7756 61.4027C45.8041 60.9649 45.794 60.5739 45.7434 59.4513C45.7363 59.2924 45.7363 59.2924 45.7294 59.1342C45.6852 58.0998 45.6878 57.5048 45.7489 57.1665C45.8604 56.5497 46.4141 55.8587 46.924 55.7064C47.6402 55.4935 48.4248 55.4396 49.0535 55.5696C49.6552 55.6926 50.3573 56.1558 50.5588 56.5014C50.8016 56.9199 51.0097 57.5574 51.1693 58.3477C51.2981 58.9856 51.3867 59.6699 51.449 60.4002C51.4684 60.6275 51.4811 60.803 51.5005 61.0935C51.5088 61.2151 51.5088 61.2151 51.5171 61.3154C51.5217 61.3657 51.5217 61.3657 51.5331 61.4453C51.5419 61.501 51.5419 61.501 51.5835 61.6421C51.6046 62.0427 51.6046 62.0427 53.2133 62.1912C53.6938 61.6104 53.6938 61.6104 53.6806 61.5086C53.7593 61.1647 53.8075 60.7813 53.8761 60.0609C53.9199 59.5926 53.942 59.3624 53.9679 59.1236C54.0748 58.1352 54.2106 57.5071 54.3762 57.2311C54.5818 56.8876 55.3056 56.4092 55.6303 56.3511C56.4456 56.2069 57.3409 56.1906 58.0322 56.3249C58.3453 56.3865 59.1091 56.9763 59.2899 57.2584C59.6611 57.8442 60.0221 59.7327 60.2254 61.6065C60.1934 61.7294 60.1934 61.7294 60.6925 62.4423C62.4082 62.2467 62.4082 62.2467 62.36 61.937C62.4053 61.8265 62.4413 61.6989 62.4923 61.5006C62.6149 61.0365 62.6962 60.767 62.8173 60.4649C62.901 60.256 62.9893 60.0774 63.0798 59.9352C63.4305 59.3832 64.3385 59.0082 65.1347 59.1312C65.9899 59.2632 66.5348 59.9061 66.5875 61.2497C66.6298 62.3554 66.6423 62.7804 66.6452 63.1976C66.6463 63.3515 66.6462 63.4751 66.6454 63.8227C66.6449 64.0375 66.6449 64.0375 66.6448 64.2993C66.6448 65.7202 66.6144 66.6055 66.5316 67.7112C66.3844 69.6098 66.136 71.6138 65.8671 72.5562C65.5926 73.517 64.773 75.3197 64.1241 76.2573C64.078 76.3017 63.8805 76.5376 63.628 76.8492C63.2078 77.3677 62.7874 77.9099 62.3934 78.4513C62.1825 78.7411 61.9845 79.0235 61.8014 79.2967C61.0933 80.3539 60.6389 81.2171 60.4918 81.9248C60.2987 82.8444 60.2297 83.3321 60.209 83.8609C60.2039 84.0106 60.2039 84.0106 60.2007 84.1558C60.1933 84.4989 60.1889 84.6375 60.1744 84.8884C60.1592 85.1519 60.1635 85.4323 60.1846 85.7286C60.2148 86.1529 60.1846 86.7327 60.1846 86.7327C60.1846 86.7327 59.8166 86.6983 59.4061 86.7077C58.9048 86.7193 58.4878 86.7022 58.1997 86.6562C57.7839 86.5892 56.6612 85.1843 56.0864 84.0898C55.2079 82.4145 53.0754 82.4958 52.2012 83.9752C51.4127 85.3174 50.2841 86.6409 49.949 86.683C48.8603 86.8199 47.1744 86.8355 43.928 86.7796C43.6176 86.7742 43.6176 86.7742 43.3075 86.7687C42.0611 86.7465 42.109 86.9569 42.1345 86.7327C42.2073 86.0924 42.1991 86.2123 42.1345 85.5722C42.0262 84.4988 41.6949 83.6236 41.0046 83.0422C40.6475 82.7389 40.2204 82.3425 39.3626 81.5277C38.3825 80.5967 38.0756 80.309 37.6973 79.9766L35.3685 77.3879C35.1129 77.061 32.8691 73.2205 31.8447 71.7341C31.4463 71.157 31.2972 70.9697 29.7679 69.0851ZM57.4021 69.0963V79.149C57.4021 80.6021 59.5818 80.6021 59.5818 79.149V69.0963C59.5818 67.6432 57.4021 67.6432 57.4021 69.0963ZM51.4988 69.0942L51.5453 79.1876C51.552 80.6407 53.7317 80.6307 53.725 79.1776L53.6785 69.0842C53.6718 67.6311 51.4921 67.6411 51.4988 69.0942ZM47.9838 79.1316L47.9228 69.1748C47.9139 67.7217 45.7342 67.735 45.7431 69.1881L45.8041 79.1449C45.8131 80.598 47.9927 80.5847 47.9838 79.1316Z" fill="white"/>
</g>
<defs>
<filter id="filter0_d_20725_4151" x="-3.99661" y="14.8269" width="104.625" height="104.625" filterUnits="userSpaceOnUse" color-interpolation-filters="sRGB">
<feFlood flood-opacity="0" result="BackgroundImageFix"/>
<feColorMatrix in="SourceAlpha" type="matrix" values="0 0 0 0 0 0 0 0 0 0 0 0 0 0 0 0 0 0 127 0" result="hardAlpha"/>
<feOffset dy="2.90625"/>
<feGaussianBlur stdDeviation="2.90625"/>
<feColorMatrix type="matrix" values="0 0 0 0 0 0 0 0 0 0 0 0 0 0 0 0 0 0 0.298656 0"/>
<feBlend mode="normal" in2="BackgroundImageFix" result="effect1_dropShadow_20725_4151"/>
<feBlend mode="normal" in="SourceGraphic" in2="effect1_dropShadow_20725_4151" result="shape"/>
</filter>
</defs>
</svg>
