<svg width="18" height="18" viewBox="0 0 18 18" fill="none" xmlns="http://www.w3.org/2000/svg">
<path d="M1.5 9H2.33333M9 1.5V2.33333M15.6667 9H16.5M9 15.6667V16.5M3.66667 3.66667L4.25 4.25M14.3333 3.66667L13.75 4.25M13.75 13.75L14.3333 14.3333M4.25 13.75L3.66667 14.3333M5.66667 9C5.66667 9.88405 6.01786 10.7319 6.64298 11.357C7.2681 11.9821 8.11594 12.3333 9 12.3333C9.88405 12.3333 10.7319 11.9821 11.357 11.357C11.9821 10.7319 12.3333 9.88405 12.3333 9C12.3333 8.11594 11.9821 7.2681 11.357 6.64298C10.7319 6.01786 9.88405 5.66667 9 5.66667C8.11594 5.66667 7.2681 6.01786 6.64298 6.64298C6.01786 7.2681 5.66667 8.11594 5.66667 9Z" stroke="#A3A3A3" stroke-width="1.5" stroke-linecap="round" stroke-linejoin="round"/>
</svg>
